Coordinates
version=1
nRows=17
nColumns=24
inDegrees=yes

Units are S.I. units (second, meters, Newtons, ...)
Angles are in degrees.

endheader
time	pelvis_tilt	pelvis_list	pelvis_rotation	pelvis_tx	pelvis_ty	pelvis_tz	hip_flexion_r	hip_adduction_r	hip_rotation_r	knee_angle_r	ankle_angle_r	subtalar_angle_r	mtp_angle_r	hip_flexion_l	hip_adduction_l	hip_rotation_l	knee_angle_l	ankle_angle_l	subtalar_angle_l	mtp_angle_l	lumbar_extension	lumbar_bending	lumbar_rotation
      0.55800000	     -2.39142438	      8.04999010	     -4.34515565	     -0.78555850	      0.97592880	      0.27459197	     28.88716458	     -6.75972862	      0.57686511	     -0.20402181	     -1.64179551	     -2.57831205	      7.72659068	    -16.44845428	     12.66064647	      7.44612023	      1.65549219	     11.75079028	    -10.81898766	     -3.07420624	    -10.34964399	     -0.62844537	     -7.67563428
      0.56216667	     -2.48096360	      7.92781780	     -4.34033568	     -0.77992128	      0.97500554	      0.27500919	     28.97503901	     -6.58508504	      0.83192907	     -0.47357571	     -1.76811427	     -2.75230131	      7.74515802	    -16.51650141	     12.53736808	      7.45626678	      1.24246252	     12.01647470	    -10.77626132	     -3.04561978	    -10.25570240	     -0.46180300	     -7.59581418
      0.56633333	     -2.54915204	      7.78736800	     -4.36716954	     -0.77425765	      0.97415642	      0.27551375	     29.02671022	     -6.37493052	      1.20417965	     -0.77189356	     -2.07540555	     -3.24842785	      7.76391594	    -16.58437678	     12.40470463	      7.35442154	      0.78940518	     12.29243650	    -10.63581184	     -3.00001174	    -10.17191532	     -0.27930358	     -7.51785170
      0.57050000	     -2.61994134	      7.62003302	     -4.39443000	     -0.76854950	      0.97335546	      0.27603001	     29.08229647	     -6.13816068	      1.57493390	     -1.14530250	     -2.39430482	     -3.76559479	      7.78068434	    -16.64381228	     12.24493584	      7.25144018	      0.31872905	     12.56399076	    -10.48800926	     -2.94539578	    -10.09096448	     -0.05888655	     -7.42820528
      0.57466667	     -2.68717329	      7.43257152	     -4.42959137	     -0.76280679	      0.97261023	      0.27657934	     29.14393143	     -5.87680434	      1.93913780	     -1.59852242	     -2.75177845	     -4.31702650	      7.79360925	    -16.69473207	     12.06773382	      7.13440099	     -0.18311509	     12.81583810	    -10.35987328	     -2.88266725	    -10.01451279	      0.18176667	     -7.32865528
      0.57883333	     -2.76339072	      7.23161641	     -4.47098477	     -0.75702234	      0.97189840	      0.27714872	     29.22453291	     -5.59749845	      2.29994887	     -2.12119195	     -3.14811508	     -4.90363744	      7.80089838	    -16.72615820	     11.87892129	      7.00782053	     -0.70449646	     13.04387457	    -10.23422022	     -2.81070826	     -9.92606538	      0.43744015	     -7.21960211
      0.58300000	     -2.84689700	      7.01734747	     -4.51820907	     -0.75120091	      0.97122628	      0.27774030	     29.32232136	     -5.30008917	      2.65069016	     -2.70680382	     -3.57686745	     -5.51424290	      7.80140854	    -16.73768637	     11.67906020	      6.87411073	     -1.25964982	     13.25023840	    -10.12645132	     -2.73219768	     -9.82786541	      0.71342264	     -7.10263081
      0.58716667	     -2.91289865	      6.79490013	     -4.57469187	     -0.74536024	      0.97062334	      0.27836989	     29.40821098	     -4.99027859	      2.99223993	     -3.33870797	     -4.04347922	     -6.15334606	      7.79510459	    -16.74613172	     11.47565836	      6.71206355	     -1.85368076	     13.43552711	    -10.01529819	     -2.63002478	     -9.75088288	      0.99381312	     -6.97356278
      0.59133333	     -2.98619208	      6.55117745	     -4.64118768	     -0.73946136	      0.97004970	      0.27902846	     29.51390907	     -4.65307834	      3.30455349	     -4.03106093	     -4.52540514	     -6.77724438	      7.78102802	    -16.75141350	     11.25247618	      6.55006621	     -2.44699696	     13.58118073	     -9.92942953	     -2.52259869	     -9.66593759	      1.29601016	     -6.83864822
      0.59550000	     -3.05972550	      6.31276064	     -4.70944372	     -0.73354587	      0.96952363	      0.27968708	     29.63237039	     -4.32017425	      3.59375212	     -4.76952285	     -5.01925292	     -7.39757995	      7.75839577	    -16.73089433	     11.03987665	      6.38892833	     -3.09033352	     13.70047742	     -9.86343685	     -2.39993790	     -9.57229932	      1.60009108	     -6.69601401
      0.59966667	     -3.12757234	      6.06628185	     -4.78824665	     -0.72759107	      0.96904933	      0.28039211	     29.75231709	     -3.97365504	      3.85807701	     -5.54478728	     -5.51069457	     -7.99970439	      7.72717420	    -16.70499257	     10.82166049	      6.21959066	     -3.75898173	     13.77413808	     -9.82465361	     -2.25920836	     -9.48329662	      1.91394787	     -6.54835164
      0.60383333	     -3.19479976	      5.81480777	     -4.86885562	     -0.72160868	      0.96862362	      0.28111221	     29.87593859	     -3.62103291	      4.10070013	     -6.34594872	     -6.00430082	     -8.59394275	      7.68404965	    -16.66238282	     10.60086156	      6.04665594	     -4.46379232	     13.81796443	     -9.79822648	     -2.08139821	     -9.40283473	      2.22462636	     -6.39211416
      0.60800000	     -3.26092395	      5.56162580	     -4.95526872	     -0.71559955	      0.96823931	      0.28183991	     30.01374581	     -3.26607217	      4.29989809	     -7.19455617	     -6.45533646	     -9.11702042	      7.63606062	    -16.60685678	     10.38337330	      5.88534909	     -5.19889215	     13.80927125	     -9.82302743	     -1.89835825	     -9.31575745	      2.54728957	     -6.24064048
      0.61216667	     -3.27285435	      5.27766630	     -5.05615863	     -0.70955315	      0.96797899	      0.28262345	     30.07817803	     -2.87848942	      4.49740143	     -8.03280856	     -6.88687360	     -9.68835901	      7.50054684	    -16.59247203	     10.13820270	      5.66376437	     -5.96860202	     13.83242886	     -9.75638958	     -1.33634038	     -9.30745256	      2.89687562	     -6.06436914
      0.61633333	     -3.36343936	      5.02991307	     -5.15053182	     -0.70347700	      0.96765121	      0.28337296	     30.26454028	     -2.52613254	      4.61315212	     -8.95381460	     -7.18929608	    -10.01025069	      7.46440820	    -16.48024706	      9.93418271	      5.54636634	     -6.76380902	     13.64179171	     -9.95556213	     -1.21662501	     -9.18119581	      3.22849312	     -5.94637720
      0.62050000	     -3.41018610	      4.78279023	     -5.24428182	     -0.69739168	      0.96743122	      0.28414238	     30.39759833	     -2.17880806	      4.72986282	     -9.87161702	     -7.48090857	    -10.40847391	      7.42212580	    -16.39319885	      9.73304216	      5.40648969	     -7.59410782	     13.47237376	    -10.12115316	     -1.07559134	     -9.09858573	      3.55253264	     -5.79824633
      0.62466667	     -3.45244606	      4.52819400	     -5.33440054	     -0.69129872	      0.96727358	      0.28497210	     30.51967717	     -1.82229823	      4.81963309	    -10.78797702	     -7.76610938	    -10.81209213	      6.45645433	    -16.26105444	      9.51259115	      5.15308232	     -8.51831151	     13.24326974	    -10.07289628	      2.88335825	     -9.05056108	      3.84663265	     -5.63083263
